# xmcd
#
# Track frame offsets:
#	150
#	17569
#	37250
#	54966
#	74136
#	90888
#	108103
#	124895
#	140371
#	156905
#	176172
#	194923
#	208305
#	225129
#	240291
#	258477
#	277846
#	297539
#	314739
#	333787
#
# Disc length: 4720 seconds
#
# Revision: 3
# Processed by: cddbd v1.5.2PL0 Copyright (c) Steve Scherf et al.
# Submitted via: audiograbber 1.83.01
#
DISCID=28126e14
DTITLE=Revised - ZM13-1
DYEAR=1900
DGENRE=Blues
TTITLE0=Lily, Amelia - Party Over
TTITLE1=Avicii - Hey Brother
TTITLE2=Avicii - You Make Me
TTITLE3=Avicii - Wake Me Up
TTITLE4=Avicii - I Could Be The One
TTITLE5=Bastille - Of The Night
TTITLE6=Bastille - Pompeli
TTITLE7=Boyzone - Love Will Save The Day
TTITLE8=Mendler, Bridgit - Ready Or Not
TTITLE9=Spears, Britney - Work Bitch
TTITLE10=Mars, Bruno - Gorilla
TTITLE11=Mars, Bruno - Treasure
TTITLE12=Mars, Bruno - When I Was Your Man
TTITLE13=Harris, Calvin - Under Control
TTITLE14=Harris, Calvin - I Need Your Love
TTITLE15=Maynard, Conor - R U Crazy
TTITLE16=Pharrell - Get Lucky
TTITLE17=Lovato, Demi - Heart Attack
TTITLE18=Lovato, Demi - Neon Lights
TTITLE19=Duets Eminem  and Rihanna - Monster, The
EXTD=
EXTT0=
EXTT1=
EXTT2=
EXTT3=
EXTT4=
EXTT5=
EXTT6=
EXTT7=
EXTT8=
EXTT9=
EXTT10=
EXTT11=
EXTT12=
EXTT13=
EXTT14=
EXTT15=
EXTT16=
EXTT17=
EXTT18=
EXTT19=
PLAYORDER=
